<svg
  fill="currentColor"
  height="20"
  viewBox="0 0 22 22"
  width="20"
  xmlns="http://www.w3.org/2000/svg"
>
  <defs>
    <style>
      svg {
        color: #888888;
        color-scheme:light dark;
      }
      @media (prefers-color-scheme:dark) {
        svg {
          color: #666666;
        }
      }
    </style>
  </defs>
  <path
    d="M11 1.68579C5.86498 1.68579 1.68567 5.86707 1.68567 11.0001C1.68567 16.1331 5.86695 20.3144 11 20.3144C16.133 20.3144 20.3142 16.1331 20.3142 11.0001C20.3142 5.86707 16.133 1.68579 11 1.68579ZM10.9862 2.51338C11.1454 2.5175 11.2968 2.58388 11.4079 2.69836C11.5191 2.81284 11.5813 2.96636 11.5812 3.12618C11.5812 3.28871 11.5167 3.44458 11.4017 3.55951C11.2868 3.67443 11.131 3.73899 10.9684 3.73899C10.8059 3.73899 10.65 3.67443 10.5351 3.55951C10.4202 3.44458 10.3556 3.28871 10.3556 3.12618C10.3556 3.0442 10.372 2.96303 10.4039 2.8875C10.4358 2.81197 10.4825 2.74361 10.5413 2.68647C10.6001 2.62933 10.6698 2.58457 10.7462 2.55483C10.8226 2.5251 10.9042 2.511 10.9862 2.51338ZM12.3891 3.52224C13.4649 3.72374 14.4839 4.15701 15.3754 4.79195C16.2669 5.42689 17.0096 6.24829 17.5517 7.19909L16.8285 8.83062C16.7044 9.11239 16.8325 9.44343 17.1123 9.56953L18.5034 10.1863C18.5466 10.6211 18.5518 11.0589 18.5192 11.4947H17.7448C17.6679 11.4947 17.6364 11.5459 17.6364 11.6208V11.9754C17.6364 12.8109 17.1655 12.9942 16.7517 13.0395C16.3576 13.0848 15.9221 12.874 15.8669 12.6336C15.6344 11.3272 15.2482 11.0493 14.6374 10.5666C15.396 10.0858 16.1842 9.37446 16.1842 8.42471C16.1842 7.39811 15.4807 6.7518 15.0019 6.43456C14.328 5.99121 13.5832 5.90254 13.3822 5.90254H5.38222C6.48843 4.66676 7.9712 3.83015 9.60094 3.52224L10.5448 4.51141C10.7576 4.73407 11.1103 4.74392 11.333 4.52914L12.3891 3.52224ZM3.67976 8.0582C3.83919 8.06282 3.99054 8.12942 4.10166 8.24384C4.21277 8.35827 4.2749 8.51151 4.27483 8.67101C4.27483 8.83354 4.21027 8.98941 4.09534 9.10433C3.98042 9.21926 3.82455 9.28382 3.66202 9.28382C3.4995 9.28382 3.34363 9.21926 3.2287 9.10433C3.11378 8.98941 3.04922 8.83354 3.04922 8.67101C3.04918 8.58902 3.0656 8.50786 3.0975 8.43233C3.1294 8.3568 3.17613 8.28844 3.23493 8.2313C3.29372 8.17416 3.36339 8.12939 3.4398 8.09966C3.5162 8.06993 3.5978 8.05583 3.67976 8.0582ZM18.2906 8.08579C18.45 8.09041 18.6014 8.157 18.7125 8.27143C18.8236 8.38586 18.8857 8.5391 18.8857 8.6986C18.8857 8.86113 18.8211 9.01699 18.7062 9.13192C18.5913 9.24684 18.4354 9.31141 18.2729 9.31141C18.1103 9.31141 17.9545 9.24684 17.8395 9.13192C17.7246 9.01699 17.6601 8.86113 17.6601 8.6986C17.66 8.61661 17.6764 8.53545 17.7083 8.45992C17.7402 8.38439 17.787 8.31603 17.8458 8.25889C17.9046 8.20174 17.9742 8.15698 18.0506 8.12725C18.127 8.09752 18.2086 8.08342 18.2906 8.08579ZM4.83444 8.18431H5.90242V13.0001H3.74675C3.48052 12.0652 3.39755 11.0876 3.50242 10.1213L4.82261 9.53407C5.10439 9.40796 5.23247 9.07889 5.10636 8.79712L4.83444 8.18431ZM9.29158 8.23554H11.8354C11.9674 8.23554 12.7635 8.38727 12.7635 8.98431C12.7635 9.47889 12.1527 9.65623 11.6502 9.65623H9.28961L9.29158 8.23554ZM9.29158 11.6956H11.2403C11.4177 11.6956 12.1921 11.7469 12.4384 12.736C12.5152 13.0395 12.6867 14.0286 12.8029 14.3459C12.9192 14.7006 13.3901 15.4099 13.8926 15.4099H17.0729C16.8597 15.6954 16.6266 15.9653 16.3753 16.2178L15.0807 15.94C14.7793 15.875 14.4817 16.0681 14.4167 16.3695L14.1093 17.804C13.1208 18.2518 12.0474 18.4809 10.9622 18.4758C9.8771 18.4707 8.80584 18.2315 7.82163 17.7745L7.51424 16.34C7.44922 16.0385 7.15365 15.8454 6.85217 15.9104L5.58518 16.1823C5.35006 15.9398 5.13151 15.6818 4.93099 15.4099H11.0926C11.1615 15.4099 11.2088 15.3981 11.2088 15.3331V13.1538C11.2088 13.0907 11.1615 13.0769 11.0926 13.0769H9.28961L9.29158 11.6956ZM6.44823 16.6868C6.60766 16.6914 6.75902 16.758 6.87013 16.8724C6.98125 16.9868 7.04337 17.1401 7.0433 17.2996C7.0433 17.4621 6.97874 17.618 6.86382 17.7329C6.74889 17.8478 6.59302 17.9124 6.4305 17.9124C6.26797 17.9124 6.1121 17.8478 5.99718 17.7329C5.88225 17.618 5.81769 17.4621 5.81769 17.2996C5.81765 17.2176 5.83407 17.1364 5.86597 17.0609C5.89787 16.9854 5.9446 16.917 6.0034 16.8599C6.0622 16.8027 6.13186 16.758 6.20827 16.7282C6.28468 16.6985 6.36628 16.6844 6.44823 16.6868ZM15.5221 16.7144C15.6816 16.719 15.8329 16.7856 15.944 16.9C16.0551 17.0144 16.1173 17.1677 16.1172 17.3272C16.1172 17.4897 16.0526 17.6456 15.9377 17.7605C15.8228 17.8754 15.6669 17.94 15.5044 17.94C15.3419 17.94 15.186 17.8754 15.0711 17.7605C14.9561 17.6456 14.8916 17.4897 14.8916 17.3272C14.8915 17.2452 14.908 17.164 14.9399 17.0885C14.9718 17.013 15.0185 16.9446 15.0773 16.8875C15.1361 16.8303 15.2058 16.7856 15.2822 16.7558C15.3586 16.7261 15.4402 16.712 15.5221 16.7144Z"
    fill="currentColor"
  />
  <path
    clip-rule="evenodd"
    d="M19.7941 11C19.7941 13.3323 18.8676 15.5691 17.2184 17.2184C15.5691 18.8676 13.3323 19.7941 11 19.7941C8.66766 19.7941 6.43085 18.8676 4.78164 17.2184C3.13243 15.5691 2.20591 13.3323 2.20591 11C2.20591 8.66766 3.13243 6.43085 4.78164 4.78164C6.43085 3.13243 8.66766 2.20591 11 2.20591C13.3323 2.20591 15.5691 3.13243 17.2184 4.78164C18.8676 6.43085 19.7941 8.66766 19.7941 11ZM19.6286 10.1507L21 11L19.6286 11.8493L20.8069 12.9507L19.2975 13.5163L20.2394 14.8266L18.6453 15.0867L19.3153 16.5566L17.7015 16.4995L18.0719 18.0719L16.4995 17.7015L16.5566 19.3153L15.0867 18.6453L14.8266 20.2394L13.5163 19.2975L12.9507 20.8069L11.8493 19.6286L11 21L10.1507 19.6286L9.04926 20.8069L8.48374 19.2975L7.1734 20.2394L6.9133 18.6453L5.44335 19.3153L5.50049 17.7015L3.92808 18.0719L4.29852 16.4995L2.68473 16.5566L3.35468 15.0867L1.76059 14.8266L2.70246 13.5163L1.1931 12.9507L2.37143 11.8493L1 11L2.37143 10.1507L1.1931 9.04926L2.70246 8.48374L1.76059 7.1734L3.35468 6.9133L2.68473 5.44335L4.29852 5.50049L3.92808 3.92808L5.50049 4.29852L5.44335 2.68473L6.9133 3.35468L7.1734 1.76059L8.48374 2.70246L9.04926 1.1931L10.1507 2.37143L11 1L11.8493 2.37143L12.9507 1.1931L13.5163 2.70246L14.8266 1.76059L15.0867 3.35468L16.5566 2.68473L16.4995 4.29852L18.0719 3.92808L17.7015 5.50049L19.3153 5.44335L18.6453 6.9133L20.2394 7.1734L19.2975 8.48374L20.8069 9.04926L19.6286 10.1507Z"
    fill="currentColor"
    fill-rule="evenodd"
    stroke="currentColor"
    stroke-linecap="round"
    stroke-linejoin="round"
    stroke-width="0.591133"
  />
</svg>
