<svg
  fill="none"
  height="32"
  viewBox="0 0 92 32"
  width="92"
  xmlns="http://www.w3.org/2000/svg"
>
  <path
    d="M82.2867 32C79.8298 32 77.514 31.0398 75.7726 29.2983L62.2077 15.7335C60.8428 14.3685 59.9485 12.6647 59.6284 10.8102C59.4401 9.72767 59.4496 8.61688 59.6566 7.53433H55.6465C54.6675 7.53433 54.2533 8.18386 54.0933 8.56981C53.9332 8.95577 53.7638 9.70885 54.4604 10.4054L60.325 16.2701C61.69 17.635 62.5842 19.3389 62.9043 21.1933C63.2055 22.9066 62.9984 24.6763 62.3301 26.3142C61.6523 27.9428 60.5415 29.336 59.1201 30.3432C57.5763 31.4258 55.7501 32 53.8203 32H53.632C51.1751 32 48.8594 31.0398 47.1179 29.2983L45.8188 27.9993C45.1975 28.9124 44.4256 29.7031 43.5219 30.3338C41.9781 31.4164 40.1519 31.9906 38.2221 31.9906C35.7652 31.9906 33.4495 31.0304 31.708 29.2889L10.4335 8.01442C10.1134 7.69436 9.68983 7.52491 9.24739 7.52491C8.26839 7.52491 7.8542 8.17445 7.69417 8.5604C7.53414 8.94635 7.36469 9.69943 8.06129 10.396L13.9259 16.2606C15.2909 17.6256 16.1851 19.3294 16.5052 21.1839C16.8064 22.8972 16.5993 24.6669 15.931 26.3048C15.2532 27.9334 14.1424 29.3266 12.721 30.3338C11.1772 31.4164 9.35094 31.9906 7.42118 31.9906H4.73833C2.65795 31.9906 0.972932 30.3056 0.972932 28.2252C0.972932 26.1448 2.65795 24.4598 4.73833 24.4598H7.38352C8.36252 24.4598 8.77672 23.8103 8.93675 23.4243C9.09678 23.0384 9.26622 22.2853 8.56962 21.5887L2.71443 15.7335C1.34947 14.3685 0.45519 12.6647 0.135131 10.8102C-0.166101 9.09697 0.0409961 7.32723 0.709354 5.68928C1.38713 4.06075 2.49792 2.66755 3.91936 1.66031C5.46317 0.577756 7.2988 0.00353289 9.22857 0.00353289C11.6855 0.00353289 14.0012 0.963709 15.7427 2.70521L37.0172 23.9797C37.3373 24.2998 37.7609 24.4692 38.2033 24.4692C39.1823 24.4692 39.5965 23.8197 39.7565 23.4337C39.9166 23.0478 40.086 22.2947 39.3988 21.6075L24.2243 6.43295C22.7558 4.96444 22.7558 2.58283 24.2243 1.10491C25.6928 -0.373007 28.0744 -0.363593 29.5523 1.10491L44.7174 16.2701C44.7268 16.2795 44.7268 16.2795 44.7363 16.2889L52.4271 23.9797C52.7471 24.2998 53.1707 24.4692 53.6132 24.4692H53.8015C54.7805 24.4692 55.1947 23.8197 55.3547 23.4337C55.5147 23.0478 55.6842 22.2947 54.9876 21.5981L49.1324 15.7335C47.7674 14.3685 46.8731 12.6647 46.5531 10.8102C46.2518 9.09697 46.4589 7.32723 47.1273 5.68928C47.8051 4.06075 48.9159 2.66755 50.3373 1.66031C51.8811 0.577756 53.7167 0.00353289 55.6465 0.00353289H70.9811C73.0615 0.00353289 74.7465 1.68855 74.7465 3.76893C74.7465 5.84931 73.0615 7.53433 70.9811 7.53433H68.7218C67.7428 7.53433 67.3287 8.18386 67.1686 8.56981C67.0086 8.95577 66.8391 9.70885 67.5357 10.4054L81.1006 23.9703C81.4206 24.2903 81.8443 24.4598 82.2867 24.4598C83.1433 24.4598 83.8399 23.7632 83.8399 22.9066C83.8399 20.8262 85.5249 19.1412 87.6053 19.1412C89.6857 19.1412 91.3707 20.8262 91.3707 22.9066C91.3801 27.924 87.2947 32 82.2867 32Z"
    fill="url(#paint0_linear_15_7515)"
  />
  <path
    d="M82.2867 28.7054C80.7052 28.7054 79.2179 28.0935 78.0977 26.9733L64.5328 13.4084C62.8102 11.6858 62.3207 9.21001 63.2526 6.96019C63.7327 5.81174 64.514 4.87981 65.4836 4.2491H55.6465C53.5943 4.2491 51.834 5.42579 51.0433 7.3179C50.2526 9.21001 50.6762 11.2904 52.1258 12.7401L57.9904 18.6047C59.7131 20.3274 60.2026 22.8031 59.2707 25.0529C58.3387 27.3028 56.2395 28.7054 53.8014 28.7054H53.6132C52.0317 28.7054 50.5444 28.0935 49.4242 26.9733L44.0114 21.5605C44.2562 22.6996 44.1432 23.9045 43.6725 25.0529C42.7406 27.3028 40.6414 28.7054 38.2033 28.7054C36.6218 28.7054 35.1345 28.0935 34.0143 26.9733L12.7398 5.69878C11.7984 4.75743 10.5464 4.23969 9.21913 4.23969C7.16699 4.23969 5.40666 5.41638 4.61593 7.30849C3.83461 9.2006 4.2488 11.281 5.69848 12.7307L11.5631 18.5953C13.2858 20.3179 13.7753 22.7937 12.8433 25.0435C11.9114 27.2933 9.81218 28.6959 7.37408 28.6959H4.7383C4.47473 28.6959 4.26763 28.4889 4.26763 28.2253C4.26763 27.9617 4.47473 27.7546 4.7383 27.7546H7.3835C9.43564 27.7546 11.196 26.5779 11.9867 24.6858C12.7774 22.7937 12.3538 20.7133 10.9041 19.2636L5.03954 13.399C3.31687 11.6858 2.82736 9.21001 3.7593 6.96019C4.69124 4.70095 6.78103 3.29834 9.22854 3.29834C10.81 3.29834 12.2973 3.91022 13.4175 5.03042L34.692 26.3049C35.6334 27.2463 36.8854 27.764 38.2127 27.764C40.2648 27.764 42.0252 26.5873 42.8159 24.6952C43.5972 22.8031 43.1924 20.7321 41.7428 19.2825L26.5588 4.1079C26.3705 3.91963 26.3705 3.62781 26.5588 3.43954C26.7471 3.25127 27.0389 3.25127 27.2271 3.43954L42.3923 18.6047L42.4017 18.6141L50.0925 26.3049C51.0339 27.2463 52.2859 27.764 53.6132 27.764H53.8014C55.8536 27.764 57.6139 26.5873 58.4046 24.6952C59.186 22.8031 58.7718 20.7227 57.3221 19.273L51.4575 13.4084C49.7348 11.6858 49.2453 9.21001 50.1772 6.96019C51.1092 4.71036 53.2084 3.30775 55.6465 3.30775H70.9811C71.2446 3.30775 71.4517 3.51485 71.4517 3.77843C71.4517 4.04201 71.2446 4.2491 70.9811 4.2491H68.7218C66.6697 4.2491 64.9094 5.42579 64.1186 7.3179C63.3373 9.21001 63.7515 11.2904 65.2012 12.7401L78.766 26.3049C79.7074 27.2463 80.9594 27.764 82.2867 27.764C84.9601 27.764 87.1346 25.5895 87.1346 22.9161C87.1346 22.6525 87.3417 22.4454 87.6053 22.4454C87.8689 22.4454 88.076 22.6525 88.076 22.9161C88.0854 26.1072 85.4873 28.7054 82.2867 28.7054Z"
    fill="var(--geist-background)"
  />
  <defs>
    <linearGradient
      gradientUnits="userSpaceOnUse"
      id="paint0_linear_15_7515"
      x1="-9.07729e-06"
      x2="91.3756"
      y1="16.0047"
      y2="16.0047"
    >
      <stop stop-color="#FFA588" />
      <stop offset="0.271" stop-color="#FCB371" />
      <stop offset="0.8357" stop-color="#F4D837" />
      <stop offset="1" stop-color="#F1E425" />
    </linearGradient>
  </defs>
</svg>
